<svg xmlns="http://www.w3.org/2000/svg" width="600" height="400" viewBox="0 0 600 400">
  <defs>
    <linearGradient id="bg6" x1="0.2" y1="0" x2="0.8" y2="1">
      <stop offset="0%" stop-color="#0f1a68"/>
      <stop offset="100%" stop-color="#010543"/>
    </linearGradient>
    <radialGradient id="decisionGlow" cx="0.5" cy="0.45" r="0.35">
      <stop offset="0%" stop-color="#3BB56D" stop-opacity="0.12"/>
      <stop offset="100%" stop-color="#010543" stop-opacity="0"/>
    </radialGradient>
    <linearGradient id="pathGrad" x1="0" y1="0" x2="1" y2="0">
      <stop offset="0%" stop-color="#3BB56D"/>
      <stop offset="100%" stop-color="#5B6BC0"/>
    </linearGradient>
  </defs>
  <rect width="600" height="400" fill="url(#bg6)"/>
  <rect width="600" height="400" fill="url(#decisionGlow)"/>
  <!-- Subtle radial rings -->
  <circle cx="300" cy="190" r="60" fill="none" stroke="#1e2660" stroke-width="0.5" stroke-opacity="0.3"/>
  <circle cx="300" cy="190" r="110" fill="none" stroke="#1e2660" stroke-width="0.4" stroke-opacity="0.2"/>
  <circle cx="300" cy="190" r="160" fill="none" stroke="#1e2660" stroke-width="0.3" stroke-opacity="0.12"/>
  <!-- Central decision diamond -->
  <polygon points="300,140 350,190 300,240 250,190" fill="#0d1340" stroke="#3BB56D" stroke-width="2" stroke-opacity="0.6"/>
  <circle cx="300" cy="190" r="15" fill="#111850" stroke="#3BB56D" stroke-width="1.5" stroke-opacity="0.5"/>
  <text x="293" y="195" font-family="Inter, system-ui, sans-serif" font-size="16" fill="#3BB56D" opacity="0.7" font-weight="700">?</text>
  <!-- Path A (left-up) - Green path -->
  <path d="M255 175 C200 140 160 100 100 80" fill="none" stroke="#3BB56D" stroke-width="2" stroke-opacity="0.5" stroke-linecap="round"/>
  <circle cx="100" cy="80" r="22" fill="#0d1340" stroke="#3BB56D" stroke-width="1.5" stroke-opacity="0.5"/>
  <text x="88" y="77" font-family="Inter, system-ui, sans-serif" font-size="8" fill="#3BB56D" opacity="0.6" font-weight="600">PATH</text>
  <text x="95" y="90" font-family="Inter, system-ui, sans-serif" font-size="12" fill="#3BB56D" opacity="0.7" font-weight="700">A</text>
  <rect x="60" y="112" width="80" height="40" rx="6" fill="#0d1340" stroke="#1e2660" stroke-width="0.8"/>
  <rect x="70" y="122" width="40" height="4" rx="1" fill="#3BB56D" opacity="0.4"/>
  <rect x="70" y="130" width="55" height="3" rx="1" fill="#3BB56D" opacity="0.2"/>
  <rect x="70" y="137" width="35" height="3" rx="1" fill="#3BB56D" opacity="0.15"/>
  <!-- Path B (right-up) - Indigo path -->
  <path d="M345 175 C400 140 440 100 500 80" fill="none" stroke="#5B6BC0" stroke-width="2" stroke-opacity="0.4" stroke-linecap="round"/>
  <circle cx="500" cy="80" r="22" fill="#0d1340" stroke="#5B6BC0" stroke-width="1.5" stroke-opacity="0.5"/>
  <text x="488" y="77" font-family="Inter, system-ui, sans-serif" font-size="8" fill="#5B6BC0" opacity="0.6" font-weight="600">PATH</text>
  <text x="495" y="90" font-family="Inter, system-ui, sans-serif" font-size="12" fill="#5B6BC0" opacity="0.7" font-weight="700">B</text>
  <rect x="460" y="112" width="80" height="40" rx="6" fill="#0d1340" stroke="#1e2660" stroke-width="0.8"/>
  <rect x="470" y="122" width="40" height="4" rx="1" fill="#5B6BC0" opacity="0.3"/>
  <rect x="470" y="130" width="55" height="3" rx="1" fill="#5B6BC0" opacity="0.18"/>
  <rect x="470" y="137" width="35" height="3" rx="1" fill="#5B6BC0" opacity="0.12"/>
  <!-- Path C (bottom) - Both colors -->
  <path d="M300 240 C300 280 300 310 300 330" fill="none" stroke="url(#pathGrad)" stroke-width="2" stroke-opacity="0.4" stroke-linecap="round"/>
  <circle cx="300" cy="340" r="18" fill="#0d1340" stroke="#3BB56D" stroke-width="1" stroke-opacity="0.3"/>
  <text x="288" y="337" font-family="Inter, system-ui, sans-serif" font-size="8" fill="#3BB56D" opacity="0.5" font-weight="600">PATH</text>
  <text x="295" y="350" font-family="Inter, system-ui, sans-serif" font-size="12" fill="#3BB56D" opacity="0.6" font-weight="700">C</text>
  <!-- Confidence bars near paths -->
  <rect x="165" y="135" width="35" height="6" rx="2" fill="#111850"/>
  <rect x="165" y="135" width="30" height="6" rx="2" fill="#3BB56D" opacity="0.4"/>
  <text x="205" y="141" font-family="Inter, system-ui, sans-serif" font-size="8" fill="#3BB56D" opacity="0.5">85%</text>
  <rect x="400" y="135" width="35" height="6" rx="2" fill="#111850"/>
  <rect x="400" y="135" width="18" height="6" rx="2" fill="#5B6BC0" opacity="0.35"/>
  <text x="440" y="141" font-family="Inter, system-ui, sans-serif" font-size="8" fill="#5B6BC0" opacity="0.45">52%</text>
  <!-- Sparkle accents -->
  <circle cx="220" cy="160" r="1.5" fill="#3BB56D" opacity="0.4"/>
  <circle cx="380" cy="160" r="1.5" fill="#5B6BC0" opacity="0.3"/>
  <circle cx="270" cy="270" r="1.5" fill="#3BB56D" opacity="0.25"/>
  <circle cx="330" cy="270" r="1.5" fill="#5B6BC0" opacity="0.2"/>
  <circle cx="150" cy="60" r="1" fill="#3BB56D" opacity="0.2"/>
  <circle cx="450" cy="55" r="1" fill="#5B6BC0" opacity="0.15"/>
  <!-- Label -->
  <text x="30" y="388" font-family="Inter, system-ui, sans-serif" font-size="11" fill="#3BB56D" opacity="0.6" letter-spacing="0.08em">ILLUSTRATION · CLAREZA DE DECISÃO</text>
</svg>