<svg xmlns="http://www.w3.org/2000/svg" viewBox="0 3 18 19" width="18" height="19">
  <path d="M 9.617 15.726 C 9.617 15.39 9.759 15.067 10.012 14.829 C 10.271 14.588 10.612 14.454 10.966 14.456 C 11.037 14.456 11.106 14.429 11.156 14.382 C 11.206 14.336 11.235 14.271 11.236 14.202 C 11.235 14.134 11.207 14.069 11.157 14.023 C 11.105 13.975 11.037 13.948 10.966 13.948 C 10.608 13.948 10.265 13.814 10.012 13.576 C 9.762 13.344 9.619 13.019 9.617 12.678 C 9.616 12.61 9.588 12.545 9.538 12.498 C 9.486 12.45 9.418 12.424 9.347 12.424 C 9.276 12.424 9.208 12.45 9.156 12.498 C 9.106 12.545 9.077 12.61 9.077 12.678 C 9.077 13.015 8.934 13.338 8.682 13.576 C 8.423 13.817 8.081 13.95 7.728 13.948 C 7.657 13.948 7.589 13.975 7.537 14.023 C 7.487 14.069 7.458 14.134 7.458 14.202 C 7.458 14.269 7.486 14.334 7.537 14.382 C 7.587 14.429 7.656 14.456 7.728 14.456 C 8.085 14.456 8.429 14.59 8.682 14.829 C 8.934 15.066 9.077 15.39 9.077 15.726 C 9.077 15.794 9.105 15.858 9.156 15.906 C 9.263 16.007 9.43 16.007 9.538 15.906 C 9.588 15.86 9.616 15.795 9.617 15.726 Z" fill="#3BB56D"/>
  <path d="M 9.831 8.156 C 9.831 7.82 9.974 7.497 10.226 7.258 C 10.486 7.017 10.827 6.884 11.181 6.886 C 11.251 6.886 11.319 6.86 11.371 6.812 C 11.421 6.765 11.45 6.7 11.45 6.632 C 11.45 6.564 11.421 6.499 11.371 6.452 C 11.32 6.404 11.252 6.378 11.181 6.378 C 10.823 6.378 10.48 6.244 10.226 6.006 C 9.976 5.774 9.833 5.449 9.831 5.108 C 9.831 5.039 9.802 4.974 9.752 4.928 C 9.7 4.88 9.632 4.854 9.562 4.854 C 9.491 4.853 9.423 4.88 9.371 4.928 C 9.321 4.974 9.292 5.039 9.292 5.108 C 9.289 5.449 9.146 5.774 8.896 6.006 C 8.643 6.244 8.3 6.378 7.943 6.378 C 7.872 6.378 7.803 6.404 7.751 6.452 C 7.701 6.499 7.673 6.564 7.672 6.632 C 7.672 6.699 7.701 6.764 7.751 6.812 C 7.802 6.859 7.871 6.886 7.943 6.886 C 8.3 6.886 8.644 7.02 8.896 7.258 C 9.15 7.496 9.292 7.82 9.292 8.156 C 9.292 8.224 9.32 8.288 9.371 8.336 C 9.478 8.436 9.645 8.436 9.752 8.336 C 9.802 8.29 9.831 8.225 9.831 8.156 Z" fill="#010543"/>
  <path d="M 13.892 20.924 L 10.072 9.935 C 10.03 9.815 10.054 9.683 10.134 9.584 L 11.679 7.697 C 11.763 7.594 11.896 7.544 12.026 7.566 C 12.157 7.589 12.266 7.679 12.311 7.804 L 16.962 20.681 C 17.002 20.793 16.985 20.918 16.916 21.016 C 16.847 21.114 16.735 21.171 16.615 21.171 L 14.241 21.171 C 14.084 21.171 13.944 21.072 13.892 20.924 Z" fill="#3BB56D"/>
  <path d="M 4.874 20.924 L 8.694 9.935 C 8.736 9.815 8.713 9.683 8.633 9.584 L 7.087 7.697 C 7.003 7.594 6.871 7.544 6.74 7.566 C 6.609 7.589 6.5 7.679 6.455 7.804 L 1.805 20.681 C 1.764 20.794 1.781 20.919 1.85 21.016 C 1.919 21.114 2.032 21.172 2.151 21.171 L 4.526 21.171 C 4.683 21.171 4.822 21.073 4.874 20.925 Z" fill="#010543"/>
</svg>
