<svg xmlns="http://www.w3.org/2000/svg" width="600" height="400" viewBox="0 0 600 400">
  <defs>
    <linearGradient id="bg2" x1="0" y1="0" x2="0.8" y2="1">
      <stop offset="0%" stop-color="#0f1a68"/>
      <stop offset="100%" stop-color="#010543"/>
    </linearGradient>
    <radialGradient id="warm" cx="0.5" cy="0.35" r="0.55">
      <stop offset="0%" stop-color="#3BB56D" stop-opacity="0.1"/>
      <stop offset="70%" stop-color="#010543" stop-opacity="0"/>
    </radialGradient>
  </defs>
  <rect width="600" height="400" fill="url(#bg2)"/>
  <rect width="600" height="400" fill="url(#warm)"/>
  <!-- Table surface -->
  <rect x="40" y="200" width="520" height="160" rx="12" fill="#0d1240" opacity="0.5"/>
  <line x1="40" y1="200" x2="560" y2="200" stroke="#3BB56D" stroke-opacity="0.08" stroke-width="1"/>
  <!-- Person 1 silhouette (left) -->
  <circle cx="160" cy="135" r="20" fill="#111850"/>
  <rect x="135" y="160" width="50" height="55" rx="10" fill="#0d1240"/>
  <!-- Person 2 silhouette (center) -->
  <circle cx="300" cy="125" r="22" fill="#111850"/>
  <rect x="273" y="152" width="54" height="58" rx="10" fill="#0d1240"/>
  <!-- Person 3 silhouette (right) -->
  <circle cx="440" cy="138" r="19" fill="#111850"/>
  <rect x="417" y="162" width="46" height="50" rx="10" fill="#0d1240"/>
  <!-- Laptop left -->
  <rect x="110" y="220" width="80" height="50" rx="4" fill="#111850" stroke="#1e2660" stroke-width="1"/>
  <rect x="115" y="225" width="70" height="38" rx="2" fill="#0a0f3a"/>
  <rect x="120" y="230" width="30" height="4" rx="1" fill="#3BB56D" opacity="0.4"/>
  <rect x="120" y="238" width="50" height="3" rx="1" fill="#5B6BC0" opacity="0.2"/>
  <rect x="120" y="245" width="40" height="3" rx="1" fill="#3BB56D" opacity="0.2"/>
  <rect x="100" y="270" width="100" height="5" rx="2" fill="#0d1240" stroke="#1e2660" stroke-width="0.5"/>
  <!-- Central docs / whiteboard -->
  <rect x="240" y="215" width="120" height="80" rx="6" fill="#111850" stroke="#1e2660" stroke-width="1"/>
  <rect x="252" y="228" width="45" height="5" rx="1" fill="#3BB56D" opacity="0.35"/>
  <rect x="252" y="238" width="95" height="3" rx="1" fill="#5B6BC0" opacity="0.15"/>
  <rect x="252" y="246" width="80" height="3" rx="1" fill="#5B6BC0" opacity="0.12"/>
  <rect x="252" y="256" width="60" height="12" rx="3" fill="#3BB56D" opacity="0.12"/>
  <rect x="252" y="274" width="70" height="3" rx="1" fill="#5B6BC0" opacity="0.1"/>
  <!-- Laptop right -->
  <rect x="410" y="225" width="75" height="45" rx="4" fill="#111850" stroke="#1e2660" stroke-width="1"/>
  <rect x="415" y="230" width="65" height="33" rx="2" fill="#0a0f3a"/>
  <rect x="420" y="235" width="28" height="4" rx="1" fill="#3BB56D" opacity="0.3"/>
  <rect x="420" y="243" width="45" height="3" rx="1" fill="#5B6BC0" opacity="0.2"/>
  <rect x="395" y="270" width="95" height="5" rx="2" fill="#0d1240" stroke="#1e2660" stroke-width="0.5"/>
  <!-- Interaction lines (collaboration energy) -->
  <line x1="185" y1="170" x2="275" y2="160" stroke="#3BB56D" stroke-opacity="0.08" stroke-width="1" stroke-dasharray="3 3"/>
  <line x1="325" y1="160" x2="420" y2="170" stroke="#3BB56D" stroke-opacity="0.08" stroke-width="1" stroke-dasharray="3 3"/>
  <!-- Ambient dots -->
  <circle cx="80" cy="90" r="1.5" fill="#3BB56D" opacity="0.2"/>
  <circle cx="520" cy="70" r="1" fill="#5B6BC0" opacity="0.18"/>
  <circle cx="300" cy="60" r="1.2" fill="#3BB56D" opacity="0.15"/>
  <!-- Label -->
  <text x="30" y="380" font-family="Inter, system-ui, sans-serif" font-size="11" fill="#3BB56D" opacity="0.6" letter-spacing="0.08em">MOOD · COLABORAÇÃO E DECISÃO</text>
</svg>