<svg width="145" height="33" viewBox="0 0 145 33" fill="none" xmlns="http://www.w3.org/2000/svg">
<path d="M10.0207 11.6683C10.0207 11.2748 10.1867 10.8974 10.4822 10.6192C10.7778 10.3409 11.1786 10.1846 11.5966 10.1846C11.6802 10.1846 11.7603 10.1534 11.8194 10.0977C11.8785 10.0421 11.9118 9.9666 11.9118 9.88791C11.9118 9.80921 11.8785 9.73373 11.8194 9.67809C11.7603 9.62244 11.6802 9.59117 11.5966 9.59117C11.1786 9.59117 10.7778 9.43486 10.4822 9.15662C10.1867 8.87838 10.0207 8.50101 10.0207 8.10752C10.0207 8.02883 9.98747 7.95335 9.92836 7.8977C9.86926 7.84205 9.78909 7.81079 9.7055 7.81079C9.62191 7.81079 9.54175 7.84205 9.48264 7.8977C9.42353 7.95335 9.39032 8.02883 9.39032 8.10752C9.39032 8.50101 9.22428 8.87838 8.92874 9.15662C8.6332 9.43486 8.23238 9.59117 7.81442 9.59117C7.73083 9.59117 7.65065 9.62244 7.59154 9.67809C7.53244 9.73373 7.49923 9.80921 7.49923 9.88791C7.49923 9.9666 7.53244 10.0421 7.59154 10.0977C7.65065 10.1534 7.73083 10.1846 7.81442 10.1846C8.23238 10.1846 8.6332 10.3409 8.92874 10.6192C9.22428 10.8974 9.39032 11.2748 9.39032 11.6683C9.39032 11.747 9.42353 11.8225 9.48264 11.8781C9.54175 11.9338 9.62191 11.965 9.7055 11.965C9.78909 11.965 9.86926 11.9338 9.92836 11.8781C9.98747 11.8225 10.0207 11.747 10.0207 11.6683Z" fill="#3BB56D"/>
<path d="M10.2716 22.6824C10.2716 22.2889 10.4376 21.9115 10.7331 21.6333C11.0287 21.355 11.4295 21.1987 11.8475 21.1987C11.931 21.1987 12.0112 21.1675 12.0703 21.1118C12.1294 21.0562 12.1626 20.9807 12.1626 20.902C12.1626 20.8233 12.1294 20.7478 12.0703 20.6922C12.0112 20.6365 11.931 20.6053 11.8475 20.6053C11.4295 20.6053 11.0287 20.4489 10.7331 20.1707C10.4376 19.8925 10.2716 19.5151 10.2716 19.1216C10.2716 19.0429 10.2384 18.9674 10.1792 18.9118C10.1201 18.8561 10.04 18.8249 9.95638 18.8249C9.87279 18.8249 9.79263 18.8561 9.73352 18.9118C9.67441 18.9674 9.64121 19.0429 9.64121 19.1216C9.64121 19.5151 9.47516 19.8925 9.17962 20.1707C8.88409 20.4489 8.48326 20.6053 8.06531 20.6053C7.98172 20.6053 7.90153 20.6365 7.84242 20.6922C7.78332 20.7478 7.75011 20.8233 7.75011 20.902C7.75011 20.9807 7.78332 21.0562 7.84242 21.1118C7.90153 21.1675 7.98172 21.1987 8.06531 21.1987C8.48326 21.1987 8.88409 21.355 9.17962 21.6333C9.47516 21.9115 9.64121 22.2889 9.64121 22.6824C9.64121 22.7611 9.67441 22.8365 9.73352 22.8922C9.79263 22.9478 9.87279 22.9791 9.95638 22.9791C10.04 22.9791 10.1201 22.9478 10.1792 22.8922C10.2384 22.8365 10.2716 22.7611 10.2716 22.6824Z" fill="#010542"/>
<path d="M15.0151 25.9153L10.5522 13.0796C10.5036 12.9396 10.5312 12.7846 10.6252 12.6697L12.4302 10.4654C12.6416 10.2073 13.0554 10.2776 13.1685 10.5909L18.6001 25.6309C18.7008 25.9096 18.4931 26.2032 18.1953 26.2032H15.4216C15.2383 26.2032 15.0751 26.0876 15.0151 25.9153Z" fill="#3BB56D"/>
<path d="M4.48125 25.9153L8.94415 13.0796C8.99282 12.9396 8.96521 12.7846 8.87117 12.6697L7.06616 10.4654C6.8548 10.2073 6.44104 10.2776 6.3279 10.5909L0.896288 25.6309C0.795643 25.9096 1.00331 26.2032 1.30105 26.2032H4.07479C4.25814 26.2032 4.42133 26.0876 4.48125 25.9153Z" fill="#010542"/>
<path d="M24.7778 19.1109C24.7778 17.7381 25.049 16.5205 25.5913 15.4582C26.15 14.3959 26.8977 13.5787 27.8344 13.0067C28.7875 12.4347 29.8474 12.1487 31.0141 12.1487C32.033 12.1487 32.9204 12.353 33.6763 12.7616C34.0286 12.948 34.3485 13.1565 34.6359 13.3871C34.9533 13.6419 35.525 13.4329 35.525 13.0272V12.7896C35.525 12.5575 35.7142 12.3693 35.9475 12.3693H38.578C38.8114 12.3693 39.0006 12.5575 39.0006 12.7896V25.5302C39.0006 25.7623 38.8114 25.9505 38.578 25.9505H35.9475C35.7142 25.9505 35.525 25.7623 35.525 25.5302V25.3101C35.525 24.8981 34.9267 24.6853 34.6054 24.9453C34.3281 25.1696 34.0184 25.3739 33.6763 25.5583C32.9039 25.9668 32.0083 26.1711 30.9895 26.1711C29.8392 26.1711 28.7875 25.877 27.8344 25.2886C26.8977 24.7002 26.15 23.8749 25.5913 22.8126C25.049 21.734 24.7778 20.5001 24.7778 19.1109ZM35.525 19.1599C35.525 18.3264 35.3607 17.6155 35.032 17.0271C34.7033 16.4224 34.2597 15.9648 33.7009 15.6543C33.1422 15.3275 32.5424 15.164 31.9015 15.164C31.2606 15.164 30.669 15.3193 30.1268 15.6298C29.5845 15.9403 29.1408 16.3979 28.7957 17.0026C28.467 17.591 28.3027 18.2937 28.3027 19.1109C28.3027 19.928 28.467 20.6471 28.7957 21.2682C29.1408 21.8729 29.5845 22.3387 30.1268 22.6655C30.6855 22.9924 31.2771 23.1558 31.9015 23.1558C32.5424 23.1558 33.1422 23.0006 33.7009 22.69C34.2597 22.3632 34.7033 21.9056 35.032 21.3172C35.3607 20.7125 35.525 19.9934 35.525 19.1599Z" fill="#010542"/>
<path d="M40.2511 19.1109C40.2511 17.7381 40.5223 16.5205 41.0646 15.4582C41.6233 14.3959 42.3792 13.5787 43.3323 13.0067C44.2854 12.4347 45.3453 12.1487 46.5121 12.1487C47.3995 12.1487 48.2458 12.3448 49.051 12.7371C49.4306 12.9143 49.7737 13.1206 50.0802 13.3559C50.4024 13.6032 50.9736 13.3923 50.9736 12.9875V8.22986C50.9736 7.99776 51.1628 7.80961 51.3962 7.80961H54.0513C54.2847 7.80961 54.4738 7.99776 54.4738 8.22986V25.5302C54.4738 25.7623 54.2847 25.9505 54.0513 25.9505H51.3962C51.1628 25.9505 50.9736 25.7623 50.9736 25.5302V25.3877C50.9736 24.9669 50.3363 24.7494 50.0073 25.014C49.7565 25.2157 49.4788 25.3972 49.1742 25.5583C48.4019 25.9668 47.5063 26.1711 46.4874 26.1711C45.3371 26.1711 44.2854 25.877 43.3323 25.2886C42.3792 24.7002 41.6233 23.8749 41.0646 22.8126C40.5223 21.734 40.2511 20.5001 40.2511 19.1109ZM50.9983 19.1599C50.9983 18.3264 50.834 17.6155 50.5053 17.0271C50.1766 16.4224 49.7329 15.9648 49.1742 15.6543C48.6155 15.3275 48.0157 15.164 47.3748 15.164C46.7339 15.164 46.1423 15.3193 45.6001 15.6298C45.0578 15.9403 44.6141 16.3979 44.269 17.0026C43.9403 17.591 43.776 18.2937 43.776 19.1109C43.776 19.928 43.9403 20.6471 44.269 21.2682C44.6141 21.8729 45.0578 22.3387 45.6001 22.6655C46.1588 22.9924 46.7504 23.1558 47.3748 23.1558C48.0157 23.1558 48.6155 23.0006 49.1742 22.69C49.7329 22.3632 50.1766 21.9056 50.5053 21.3172C50.834 20.7125 50.9983 19.9934 50.9983 19.1599Z" fill="#010542"/>
<path d="M61.8375 26.1711C60.72 26.1711 59.7176 25.975 58.8303 25.5828C57.9429 25.1742 57.2363 24.6267 56.7104 23.9403C56.2927 23.3774 56.0296 22.7651 55.9213 22.1033C55.8822 21.8646 56.0773 21.6604 56.3205 21.6604H58.9749C59.188 21.6604 59.3623 21.8206 59.4281 22.0222C59.5471 22.3865 59.7751 22.699 60.112 22.9597C60.5722 23.3029 61.1391 23.4745 61.8128 23.4745C62.4701 23.4745 62.9796 23.3438 63.3411 23.0823C63.7191 22.8208 63.908 22.4858 63.908 22.0772C63.908 21.6359 63.678 21.309 63.2179 21.0966C62.7742 20.8678 62.0593 20.6226 61.0733 20.3611C60.0545 20.116 59.2164 19.8627 58.5591 19.6012C57.9182 19.3397 57.3595 18.9393 56.8829 18.4C56.4228 17.8606 56.1928 17.1334 56.1928 16.2182C56.1928 15.4664 56.4064 14.78 56.8336 14.1589C57.2773 13.5379 57.9018 13.0476 58.707 12.688C59.5287 12.3285 60.49 12.1487 61.591 12.1487C63.2179 12.1487 64.5161 12.5573 65.4856 13.3744C66.347 14.0859 66.8646 15.0232 67.0386 16.1862C67.0746 16.4274 66.8792 16.6349 66.634 16.6349H64.1707C63.9521 16.6349 63.7754 16.4669 63.7156 16.2579C63.6114 15.8936 63.4044 15.5943 63.0946 15.3601C62.7002 15.0333 62.1661 14.8698 61.4924 14.8698C60.8679 14.8698 60.3832 14.9842 60.0381 15.213C59.7094 15.4419 59.5451 15.7605 59.5451 16.1691C59.5451 16.6267 59.7751 16.9781 60.2353 17.2233C60.6954 17.4521 61.4102 17.689 62.3798 17.9342C63.3657 18.1793 64.1792 18.4327 64.8201 18.6941C65.461 18.9556 66.0115 19.3642 66.4716 19.9199C66.9481 20.4592 67.1946 21.1783 67.2111 22.0772C67.2111 22.8616 66.9892 23.5644 66.5455 24.1854C66.1183 24.8065 65.4938 25.2968 64.6722 25.6563C63.867 25.9995 62.9221 26.1711 61.8375 26.1711Z" fill="#010542"/>
<path d="M85.7702 12.1732C87.4463 12.1732 88.7938 12.688 89.8127 13.7177C90.8479 14.7309 91.3656 16.1528 91.3656 17.9832V25.5302C91.3656 25.7623 91.1764 25.9505 90.943 25.9505H88.3372C88.1039 25.9505 87.9147 25.7623 87.9147 25.5302V18.449C87.9147 17.3867 87.6435 16.5777 87.1012 16.022C86.5589 15.45 85.8195 15.164 84.8828 15.164C83.9461 15.164 83.1984 15.45 82.6397 16.022C82.0974 16.5777 81.8263 17.3867 81.8263 18.449V25.5302C81.8263 25.7623 81.6371 25.9505 81.4037 25.9505H78.7979C78.5645 25.9505 78.3753 25.7623 78.3753 25.5302V18.449C78.3753 17.3867 78.1042 16.5777 77.5619 16.022C77.0196 15.45 76.2801 15.164 75.3434 15.164C74.3903 15.164 73.6344 15.45 73.0757 16.022C72.5334 16.5777 72.2623 17.3867 72.2623 18.449V25.5302C72.2623 25.7623 72.0731 25.9505 71.8397 25.9505H69.2339C69.0005 25.9505 68.8113 25.7623 68.8113 25.5302V12.7896C68.8113 12.5575 69.0005 12.3693 69.2339 12.3693H71.8424C72.0743 12.3693 72.2623 12.5563 72.2623 12.7869C72.2623 13.1853 72.8165 13.3938 73.1377 13.1557C73.3898 12.9688 73.665 12.8047 73.9631 12.6635C74.6697 12.3367 75.442 12.1732 76.2801 12.1732C77.3483 12.1732 78.3014 12.402 79.1395 12.8596C79.751 13.1816 80.2618 13.608 80.6721 14.1388C80.8741 14.4001 81.304 14.4028 81.5098 14.1444C81.9081 13.6443 82.408 13.2243 83.0094 12.8842C83.8639 12.4102 84.7842 12.1732 85.7702 12.1732Z" fill="#010542"/>
<path d="M92.5204 19.1109C92.5204 17.7381 92.7916 16.5205 93.3339 15.4582C93.8926 14.3959 94.6403 13.5787 95.577 13.0067C96.5301 12.4347 97.59 12.1487 98.7568 12.1487C99.7756 12.1487 100.663 12.353 101.419 12.7616C101.771 12.948 102.091 13.1565 102.378 13.3871C102.696 13.6419 103.268 13.4329 103.268 13.0272V12.7896C103.268 12.5575 103.457 12.3693 103.69 12.3693H106.321C106.554 12.3693 106.743 12.5575 106.743 12.7896V25.5302C106.743 25.7623 106.554 25.9505 106.321 25.9505H103.69C103.457 25.9505 103.268 25.7623 103.268 25.5302V25.3101C103.268 24.8981 102.669 24.6853 102.348 24.9453C102.071 25.1696 101.761 25.3739 101.419 25.5583C100.647 25.9668 99.7509 26.1711 98.7321 26.1711C97.5818 26.1711 96.5301 25.877 95.577 25.2886C94.6403 24.7002 93.8926 23.8749 93.3339 22.8126C92.7916 21.734 92.5204 20.5001 92.5204 19.1109ZM103.268 19.1599C103.268 18.3264 103.103 17.6155 102.775 17.0271C102.446 16.4224 102.002 15.9648 101.444 15.6543C100.885 15.3275 100.285 15.164 99.6441 15.164C99.0033 15.164 98.4117 15.3193 97.8694 15.6298C97.3271 15.9403 96.8834 16.3979 96.5383 17.0026C96.2096 17.591 96.0453 18.2937 96.0453 19.1109C96.0453 19.928 96.2096 20.6471 96.5383 21.2682C96.8834 21.8729 97.3271 22.3387 97.8694 22.6655C98.4281 22.9924 99.0197 23.1558 99.6441 23.1558C100.285 23.1558 100.885 23.0006 101.444 22.69C102.002 22.3632 102.446 21.9056 102.775 21.3172C103.103 20.7125 103.268 19.9934 103.268 19.1599Z" fill="#010542"/>
<path d="M114.23 12.1487C115.249 12.1487 116.144 12.353 116.917 12.7616C117.247 12.929 117.546 13.1188 117.816 13.3309C118.141 13.5864 118.741 13.3727 118.741 12.9607V12.7896C118.741 12.5575 118.93 12.3693 119.163 12.3693H121.794C122.027 12.3693 122.216 12.5575 122.216 12.7896V26.0486C122.216 27.307 121.962 28.4265 121.452 29.4071C120.943 30.404 120.179 31.1885 119.16 31.7605C118.141 32.3488 116.909 32.643 115.463 32.643C113.523 32.643 111.929 32.1936 110.681 31.2947C109.573 30.487 108.897 29.4153 108.652 28.0796C108.607 27.8342 108.804 27.6175 109.055 27.6175H111.694C111.882 27.6175 112.044 27.7429 112.118 27.9149C112.326 28.3971 112.676 28.7883 113.17 29.0884C113.778 29.4643 114.509 29.6522 115.364 29.6522C116.366 29.6522 117.18 29.3499 117.804 28.7452C118.429 28.1568 118.741 27.2579 118.741 26.0486V25.2856C118.741 24.8736 118.143 24.6608 117.821 24.9208C117.544 25.1451 117.234 25.3494 116.892 25.5337C116.12 25.9587 115.232 26.1711 114.23 26.1711C113.08 26.1711 112.028 25.877 111.075 25.2886C110.122 24.7002 109.366 23.8749 108.807 22.8126C108.265 21.734 107.994 20.5001 107.994 19.1109C107.994 17.7381 108.265 16.5205 108.807 15.4582C109.366 14.3959 110.114 13.5787 111.05 13.0067C112.003 12.4347 113.063 12.1487 114.23 12.1487ZM118.741 19.1599C118.741 18.3264 118.577 17.6155 118.248 17.0271C117.919 16.4224 117.476 15.9648 116.917 15.6543C116.358 15.3275 115.758 15.164 115.117 15.164C114.477 15.164 113.885 15.3193 113.343 15.6298C112.8 15.9403 112.357 16.3979 112.012 17.0026C111.683 17.591 111.519 18.2937 111.519 19.1109C111.519 19.928 111.683 20.6471 112.012 21.2682C112.357 21.8729 112.8 22.3387 113.343 22.6655C113.901 22.9924 114.493 23.1558 115.117 23.1558C115.758 23.1558 116.358 23.0006 116.917 22.69C117.476 22.3632 117.919 21.9056 118.248 21.3172C118.577 20.7125 118.741 19.9934 118.741 19.1599Z" fill="#010542"/>
<path d="M126.105 10.7514C125.496 10.7514 124.987 10.5634 124.576 10.1875C124.182 9.7953 123.985 9.31317 123.985 8.74116C123.985 8.16915 124.182 7.6952 124.576 7.31931C124.987 6.92707 125.496 6.73096 126.105 6.73096C126.713 6.73096 127.214 6.92707 127.608 7.31931C128.019 7.6952 128.224 8.16915 128.224 8.74116C128.224 9.31317 128.019 9.7953 127.608 10.1875C127.214 10.5634 126.713 10.7514 126.105 10.7514ZM127.383 12.3693C127.616 12.3693 127.805 12.5575 127.805 12.7896V25.5302C127.805 25.7623 127.616 25.9505 127.383 25.9505H124.777C124.544 25.9505 124.354 25.7623 124.354 25.5302V12.7896C124.354 12.5575 124.544 12.3693 124.777 12.3693H127.383Z" fill="#010542"/>
<path d="M129.095 19.1599C129.095 17.7544 129.383 16.5287 129.958 15.4827C130.533 14.4204 131.33 13.6033 132.349 13.0312C133.368 12.4429 134.534 12.1487 135.849 12.1487C137.542 12.1487 138.938 12.5736 140.039 13.4235C141.027 14.16 141.726 15.1645 142.136 16.437C142.219 16.6969 142.017 16.9536 141.743 16.9536H138.865C138.683 16.9536 138.524 16.8365 138.451 16.6712C138.247 16.2168 137.947 15.8533 137.55 15.5808C137.09 15.2376 136.514 15.066 135.824 15.066C134.838 15.066 134.058 15.4255 133.483 16.1446C132.907 16.8474 132.62 17.8525 132.62 19.1599C132.62 20.451 132.907 21.4561 133.483 22.1752C134.058 22.878 134.838 23.2294 135.824 23.2294C137.112 23.2294 137.987 22.7017 138.451 21.6465C138.523 21.4819 138.682 21.3662 138.862 21.3662H141.738C142.014 21.3662 142.216 21.6252 142.129 21.8855C141.719 23.1147 141.022 24.1102 140.039 24.8718C138.922 25.738 137.525 26.1711 135.849 26.1711C134.534 26.1711 133.368 25.8851 132.349 25.3131C131.33 24.7248 130.533 23.9076 129.958 22.8616C129.383 21.7993 129.095 20.5654 129.095 19.1599Z" fill="#010542"/>
</svg>
